<svg width="29" height="29" viewBox="0 0 29 29" fill="none" xmlns="http://www.w3.org/2000/svg">
<path d="M10.7195 26.022H8.41517C3.80647 26.022 2.6543 24.8698 2.6543 20.2611V8.73939C2.6543 4.13069 3.80647 2.97852 8.41517 2.97852H10.1434C11.8717 2.97852 12.2519 3.48549 12.9087 4.36114L14.6369 6.66549C15.0748 7.24157 15.3282 7.58721 16.4804 7.58721H19.9369C24.5456 7.58721 25.6978 8.73939 25.6978 13.3481V15.6524" stroke="white" stroke-width="1.5" stroke-miterlimit="10" stroke-linecap="round" stroke-linejoin="round"/>
<path d="M16.2045 21.7819C13.4969 21.9778 13.4969 25.8952 16.2045 26.0911H22.6106C23.3826 26.0911 24.143 25.803 24.7076 25.2845C26.6087 23.6254 25.5947 20.3071 23.0945 19.996C22.1958 14.5923 14.3841 16.6432 16.2276 21.7934" stroke="white" stroke-width="1.5" stroke-miterlimit="10" stroke-linecap="round" stroke-linejoin="round"/>
</svg>
